<svg width="59" height="59" viewBox="0 0 59 59" fill="none" xmlns="http://www.w3.org/2000/svg">
<path fill-rule="evenodd" clip-rule="evenodd" d="M0 1.84375C0 1.35476 0.194252 0.885792 0.540022 0.540022C0.885792 0.194252 1.35476 0 1.84375 0L12.9062 0C13.3952 0 13.8642 0.194252 14.21 0.540022C14.5557 0.885792 14.75 1.35476 14.75 1.84375C14.75 2.33274 14.5557 2.80171 14.21 3.14748C13.8642 3.49325 13.3952 3.6875 12.9062 3.6875H3.6875V12.9062C3.6875 13.3952 3.49325 13.8642 3.14748 14.21C2.80171 14.5557 2.33274 14.75 1.84375 14.75C1.35476 14.75 0.885792 14.5557 0.540022 14.21C0.194252 13.8642 0 13.3952 0 12.9062V1.84375ZM44.25 1.84375C44.25 1.35476 44.4443 0.885792 44.79 0.540022C45.1358 0.194252 45.6048 0 46.0938 0L57.1562 0C57.6452 0 58.1142 0.194252 58.46 0.540022C58.8057 0.885792 59 1.35476 59 1.84375V12.9062C59 13.3952 58.8057 13.8642 58.46 14.21C58.1142 14.5557 57.6452 14.75 57.1562 14.75C56.6673 14.75 56.1983 14.5557 55.8525 14.21C55.5068 13.8642 55.3125 13.3952 55.3125 12.9062V3.6875H46.0938C45.6048 3.6875 45.1358 3.49325 44.79 3.14748C44.4443 2.80171 44.25 2.33274 44.25 1.84375ZM1.84375 44.25C2.33274 44.25 2.80171 44.4443 3.14748 44.79C3.49325 45.1358 3.6875 45.6048 3.6875 46.0938V55.3125H12.9062C13.3952 55.3125 13.8642 55.5068 14.21 55.8525C14.5557 56.1983 14.75 56.6673 14.75 57.1562C14.75 57.6452 14.5557 58.1142 14.21 58.46C13.8642 58.8057 13.3952 59 12.9062 59H1.84375C1.35476 59 0.885792 58.8057 0.540022 58.46C0.194252 58.1142 0 57.6452 0 57.1562V46.0938C0 45.6048 0.194252 45.1358 0.540022 44.79C0.885792 44.4443 1.35476 44.25 1.84375 44.25ZM57.1562 44.25C57.6452 44.25 58.1142 44.4443 58.46 44.79C58.8057 45.1358 59 45.6048 59 46.0938V57.1562C59 57.6452 58.8057 58.1142 58.46 58.46C58.1142 58.8057 57.6452 59 57.1562 59H46.0938C45.6048 59 45.1358 58.8057 44.79 58.46C44.4443 58.1142 44.25 57.6452 44.25 57.1562C44.25 56.6673 44.4443 56.1983 44.79 55.8525C45.1358 55.5068 45.6048 55.3125 46.0938 55.3125H55.3125V46.0938C55.3125 45.6048 55.5068 45.1358 55.8525 44.79C56.1983 44.4443 56.6673 44.25 57.1562 44.25ZM11.0625 11.0625H22.125V22.125H11.0625V11.0625ZM11.0625 36.875H22.125V47.9375H11.0625V36.875ZM36.875 11.0625H47.9375V22.125H36.875V11.0625ZM25.8125 7.375H7.375V25.8125H25.8125V7.375ZM25.8125 33.1875H7.375V51.625H25.8125V33.1875ZM33.1875 7.375H51.625V25.8125H33.1875V7.375ZM14.75 14.75H18.4375V18.4375H14.75V14.75ZM40.5625 14.75H44.25V18.4375H40.5625V14.75ZM18.4375 40.5625H14.75V44.25H18.4375V40.5625ZM31.3438 29.5H29.5V36.875H33.1875V40.5625H29.5V44.25H36.875V36.875H40.5625V44.25H44.25V40.5625H51.625V36.875H40.5625V29.5H31.3438ZM36.875 36.875V33.1875H33.1875V36.875H36.875ZM51.625 49.7812V44.25H47.9375V47.9375H40.5625V51.625H51.625V49.7812ZM36.875 51.625V47.9375H29.5V51.625H36.875ZM44.25 33.1875H51.625V29.5H44.25V33.1875Z" fill="#23342F"/>
</svg>
