<svg width="43" height="15" viewBox="0 0 43 15" fill="none" xmlns="http://www.w3.org/2000/svg">
<g filter="url(#filter0_d_59:218)">
<path fill-rule="evenodd" clip-rule="evenodd" d="M4.56799 15H1.6725C1.43588 15 1.26153 14.9481 1.14944 14.8444C1.04981 14.7278 1 14.5463 1 14.3V1.7C1 1.4537 1.04981 1.2787 1.14944 1.175C1.26153 1.05833 1.43588 1 1.6725 1H10.004C10.2406 1 10.4088 1.05833 10.5084 1.175C10.6205 1.2787 10.6765 1.4537 10.6765 1.7V4.01389C10.6765 4.26019 10.6205 4.44167 10.5084 4.55833C10.4088 4.66204 10.2406 4.71389 10.004 4.71389H5.24048V6.73611H8.4909C8.72752 6.73611 8.89565 6.79444 8.99527 6.91111C9.10736 7.01481 9.1634 7.18981 9.1634 7.43611V9.76944C9.1634 10.0157 9.10736 10.1972 8.99527 10.3139C8.89565 10.4176 8.72752 10.4694 8.4909 10.4694H5.24048V14.3C5.24048 14.5463 5.18444 14.7278 5.07236 14.8444C4.97273 14.9481 4.80461 15 4.56799 15ZM16.7737 4.5L17.7574 2.80645L19.9849 6.64071C19.9849 6.64071 19.7254 6.81894 19.326 7.00063L20.7274 8.93595C20.7274 8.93595 20.3629 9.11275 19.8056 9.28854L21.4698 11.1216C21.4698 11.1216 20.9774 11.3123 20.2337 11.4939L22.2121 13.31C22.2121 13.31 21.3315 13.5946 20.0946 13.7999V14.3C20.0946 14.5463 20.1444 14.7278 20.244 14.8444C20.3561 14.9481 20.5305 15 20.7671 15H23.6626C23.8992 15 24.0673 14.9481 24.1669 14.8444C24.279 14.7278 24.3351 14.5463 24.3351 14.3V10.1778C24.3351 9.36111 24.1234 8.70648 23.6999 8.21389C23.289 7.7213 22.7472 7.43611 22.0747 7.35833C22.4608 7.18981 22.7285 6.91759 22.878 6.54167C23.0399 6.15278 23.1208 5.68611 23.1208 5.14167V4.24722C23.1208 3.28796 22.8531 2.51019 22.3176 1.91389C21.7945 1.30463 20.8356 1 19.4408 1H13.2201C12.9835 1 12.8092 1.05833 12.6971 1.175C12.5975 1.2787 12.5476 1.4537 12.5476 1.7V14.3C12.5476 14.5463 12.5975 14.7278 12.6971 14.8444C12.8092 14.9481 12.9835 15 13.2201 15H16.0969C16.3336 15 16.5017 14.9481 16.6013 14.8444C16.6515 14.7922 16.6904 14.727 16.7181 14.6489V13.9621C14.8472 13.8091 13.303 13.31 13.303 13.31L15.2813 11.4939C14.5377 11.3123 14.0454 11.1216 14.0454 11.1216L15.7094 9.28834C15.1523 9.11275 14.7879 8.93595 14.7879 8.93595L16.189 7.00063C15.7897 6.81894 15.5303 6.64071 15.5303 6.64071L16.7694 4.50738V4.5H16.7737ZM30.4093 8.03889L31.3807 5.00556C31.4305 4.87593 31.4741 4.79167 31.5115 4.75278C31.5613 4.70093 31.636 4.675 31.7356 4.675H33.3608V8.03889H30.4093ZM30.0544 14.8444C30.1665 14.7278 30.2225 14.5463 30.2225 14.3V11.5778H33.3608V14.3C33.3608 14.5463 33.4107 14.7278 33.5103 14.8444C33.6224 14.9481 33.7967 15 34.0333 15H42.3275C42.5641 15 42.7322 14.9481 42.8319 14.8444C42.944 14.7278 43 14.5463 43 14.3V12.025C43 11.7787 42.944 11.6037 42.8319 11.5C42.7322 11.3833 42.5641 11.325 42.3275 11.325H37.6013V9.65278H40.8144C41.051 9.65278 41.2191 9.60093 41.3187 9.49722C41.4308 9.38056 41.4869 9.19907 41.4869 8.95278V6.87222C41.4869 6.62593 41.4308 6.45093 41.3187 6.34722C41.2191 6.23056 41.051 6.17222 40.8144 6.17222H37.6013V4.675H42.3275C42.5641 4.675 42.7322 4.62315 42.8319 4.51944C42.944 4.40278 43 4.2213 43 3.975V1.7C43 1.4537 42.944 1.2787 42.8319 1.175C42.7322 1.05833 42.5641 1 42.3275 1H29.4753C29.1639 1 28.9149 1.05833 28.7281 1.175C28.5537 1.29167 28.4167 1.49907 28.3171 1.79722L26.6919 6.44444C26.5175 6.92407 26.3805 7.39074 26.2809 7.84444C26.1937 8.28518 26.1501 8.79074 26.1501 9.36111V14.3C26.1501 14.5463 26.2 14.7278 26.2996 14.8444C26.4117 14.9481 26.586 15 26.8226 15H29.55C29.7866 15 29.9548 14.9481 30.0544 14.8444Z" fill="#3A5046"/>
</g>
<defs>
<filter id="filter0_d_59:218" x="0.0967742" y="0.548387" width="42.9032" height="14.4516" filterUnits="userSpaceOnUse" color-interpolation-filters="sRGB">
<feFlood flood-opacity="0" result="BackgroundImageFix"/>
<feColorMatrix in="SourceAlpha" type="matrix" values="0 0 0 0 0 0 0 0 0 0 0 0 0 0 0 0 0 0 127 0" result="hardAlpha"/>
<feOffset dx="-0.903226" dy="-0.451613"/>
<feComposite in2="hardAlpha" operator="out"/>
<feColorMatrix type="matrix" values="0 0 0 0 0.678431 0 0 0 0 0.760784 0 0 0 0 0.478431 0 0 0 1 0"/>
<feBlend mode="normal" in2="BackgroundImageFix" result="effect1_dropShadow_59:218"/>
<feBlend mode="normal" in="SourceGraphic" in2="effect1_dropShadow_59:218" result="shape"/>
</filter>
</defs>
</svg>
